<svg xmlns="http://www.w3.org/2000/svg" xmlns:xlink="http://www.w3.org/1999/xlink" xmlns:svgjs="http://svgjs.com/svgjs" width="512" height="512" x="0" y="0" viewBox="0 0 64 64" style="enable-background:new 0 0 512 512" xml:space="preserve" class=""><g><g xmlns="http://www.w3.org/2000/svg" id="distance-people-virus-protection-covid19"><path d="M19,15H18a1,1,0,0,1-1-1V13a4.954,4.954,0,0,0,2-4V7.23a5.343,5.343,0,0,0-1.66-3.86,4.844,4.844,0,0,0-3.58-1.36A4.994,4.994,0,0,0,9,7V9a4.992,4.992,0,0,0,2,3.99V14a1,1,0,0,1-1,1H9a7.008,7.008,0,0,0-7,7V33.5A3.5,3.5,0,0,0,5.5,37,3.446,3.446,0,0,0,7,36.65V58a3.985,3.985,0,0,0,7,2.62A3.985,3.985,0,0,0,21,58V36.65a3.446,3.446,0,0,0,1.5.35A3.5,3.5,0,0,0,26,33.5V22A7.008,7.008,0,0,0,19,15Zm5,18.5a1.5,1.5,0,0,1-3,0V22a1,1,0,0,0-2,0V58a2,2,0,0,1-4,0V38a1,1,0,0,0-2,0V58a2,2,0,0,1-4,0V22a1,1,0,0,0-2,0V33.5a1.5,1.5,0,0,1-3,0V22a5,5,0,0,1,5-5h1a3.009,3.009,0,0,0,3-3V12.46a1,1,0,0,0-.5-.87A3.011,3.011,0,0,1,11,9V7a3,3,0,0,1,.87-2.12A3.082,3.082,0,0,1,13.86,4a2.86,2.86,0,0,1,2.1.82A3.355,3.355,0,0,1,17,7.23V9a3,3,0,0,1-1.41,2.55.987.987,0,0,0-.59.91V14a3.009,3.009,0,0,0,3,3h1a5,5,0,0,1,5,5Z" fill="#dbad6a" data-original="#000000" style="" class=""></path><path d="M24.293,12.707a1,1,0,0,0,1.414-1.414L24.414,10H39.586l-1.293,1.293a1,1,0,1,0,1.414,1.414l3-3a1,1,0,0,0,0-1.414l-3-3a1,1,0,0,0-1.414,1.414L39.586,8H24.414l1.293-1.293a1,1,0,1,0-1.414-1.414l-3,3a1,1,0,0,0,0,1.414Z" fill="#dbad6a" data-original="#000000" style="" class=""></path><path d="M38.707,44.293a1,1,0,0,0-1.414,1.414L38.586,47H25.414l1.293-1.293a1,1,0,0,0-1.414-1.414l-3,3a1,1,0,0,0,0,1.414l3,3a1,1,0,0,0,1.414-1.414L25.414,49H38.586l-1.293,1.293a1,1,0,1,0,1.414,1.414l3-3a1,1,0,0,0,0-1.414Z" fill="#dbad6a" data-original="#000000" style="" class=""></path><path d="M55,15H54a1,1,0,0,1-1-1V13a4.954,4.954,0,0,0,2-4V7.23a5.343,5.343,0,0,0-1.66-3.86,4.829,4.829,0,0,0-3.58-1.36A4.994,4.994,0,0,0,45,7V9a4.992,4.992,0,0,0,2,3.99V14a1,1,0,0,1-1,1H45a7.008,7.008,0,0,0-7,7V33.5A3.5,3.5,0,0,0,41.5,37a3.446,3.446,0,0,0,1.5-.35V58a3.985,3.985,0,0,0,7,2.62A3.985,3.985,0,0,0,57,58V36.65a3.446,3.446,0,0,0,1.5.35A3.5,3.5,0,0,0,62,33.5V22A7.008,7.008,0,0,0,55,15Zm5,18.5a1.5,1.5,0,0,1-3,0V22a1,1,0,0,0-2,0V58a2,2,0,0,1-4,0V38a1,1,0,0,0-2,0V58a2,2,0,0,1-4,0V22a1,1,0,0,0-2,0V33.5a1.5,1.5,0,0,1-3,0V22a5,5,0,0,1,5-5h1a3.009,3.009,0,0,0,3-3V12.46a1,1,0,0,0-.5-.87A3.011,3.011,0,0,1,47,9V7a3,3,0,0,1,.87-2.12A3.082,3.082,0,0,1,49.86,4a2.86,2.86,0,0,1,2.1.82A3.355,3.355,0,0,1,53,7.23V9a3,3,0,0,1-1.41,2.55.987.987,0,0,0-.59.91V14a3.009,3.009,0,0,0,3,3h1a5,5,0,0,1,5,5Z" fill="#dbad6a" data-original="#000000" style="" class=""></path></g></g></svg>