<svg xmlns="http://www.w3.org/2000/svg" xmlns:xlink="http://www.w3.org/1999/xlink" xmlns:svgjs="http://svgjs.com/svgjs" width="512" height="512" x="0" y="0" viewBox="0 0 61 61" style="enable-background:new 0 0 512 512" xml:space="preserve"><g><g xmlns="http://www.w3.org/2000/svg" id="Page-1" fill="none" fill-rule="evenodd"><g id="019---Latte-Art" fill="rgb(0,0,0)" fill-rule="nonzero" transform="translate(0 -1)"><path id="Shape" d="m14.15 18.151c7.4296659-7.3912136 19.1637198-8.19419775 27.531-1.884.4396187.3344084 1.0670916.2491186 1.4015-.1905.3344084-.4396187.2491186-1.0670916-.1905-1.4015-9.1551557-6.94273875-22.0299384-6.06215351-30.1545459 2.0624541-8.12460761 8.1246075-9.00519285 20.9993902-2.0624541 30.1545459.213421.2921268.5679835.4462002.9271649.4028949.3591813-.0433052.6669636-.2772352.8048366-.6117163.1378731-.3344811.0843343-.7173476-.1400015-1.0011786-6.31046164-8.3670382-5.50790481-20.1010754 1.883-27.531z" fill="#dbad6a" data-original="#000000" style=""></path><path id="Shape" d="m45.924 18.917c-.4388888.3341208-.5243481.960524-.191 1.4 6.3394603 8.358667 5.5359753 20.1139266-1.8818609 27.5322672-7.4178362 7.4183405-19.1730411 8.2226248-27.5321391 1.8837328-.4396187-.3344084-1.0670916-.2491187-1.4015.1905s-.2491187 1.0670916.1905 1.4015c9.1551557 6.9427387 22.0299384 6.0621535 30.1545459-2.0624541 8.1246076-8.1246075 9.0051928-20.9993902 2.0624541-30.1545459-.3341863-.439526-.9613541-.5250285-1.401-.191z" fill="#dbad6a" data-original="#000000" style=""></path><path id="Shape" d="m52.463 2.463-7.531 7.53c-11.9279896-8.26614889-28.1923652-6.06468982-37.49369135 5.074946-9.30132618 11.1396357-8.56553478 27.5358226 1.69619397 37.7975514 10.26172878 10.2617287 26.65791568 10.9975201 37.79755138 1.6961939 11.1396358-9.3013261 13.3410949-25.5657017 5.074946-37.4936913l7.53-7.531c1.9534311-1.95343117 1.953431-5.12056878-.0000001-7.07399991-1.9534311-1.95343112-5.1205687-1.95343116-7.0739999-.00000009zm2.537 30.537c0 14.3594035-11.6405965 26-26 26s-26-11.6405965-26-26 11.6405965-26 26-26c14.3527783.01598214 25.9840179 11.6472217 26 26zm3.123-24.877-7.323 7.328c-1.2615909-1.5639902-2.6863066-2.9890412-4.25-4.251l7.327-7.327c1.1725005-1.17250052 3.0734995-1.17250052 4.246 0s1.1725005 3.07349948 0 4.246z" fill="#dbad6a" data-original="#000000" style=""></path><path id="Shape" d="m28 47.957v3.043c0 .5522847.4477153 1 1 1s1-.4477153 1-1v-3.043c6.7318414-.4247413 12.3944686-5.2011114 13.948-11.765.2456386-.9764785-.2199846-1.9925348-1.12-2.444-.7742794-.3537044-1.690744-.1007703-2.174.6-2.186 2.94-6.209 4.824-10.654 5.076v-2.462c4.8373776-.3110188 9.0628868-3.3806834 10.854-7.885.3923094-.9616967.0527128-2.0666402-.812-2.642-.7547527-.490103-1.7521803-.3692155-2.368.287-2.1017488 1.9313573-4.8217602 3.0524671-7.674 3.163v-2.28c5.192-2.735 6-5.709 6-7.272.0544734-1.1077101-.3386355-2.1908184-1.0909124-3.0057224-.7522769-.8149039-1.800563-1.2931868-2.9090876-1.3272776-1.0944279-.0025287-2.1554284.3769558-3 1.073-.8445716-.6960442-1.9055721-1.0755287-3-1.073-1.1085246.0340908-2.1568107.5123737-2.9090876 1.3272776-.7522769.814904-1.1453858 1.8980123-1.0909124 3.0057224 0 1.563.808 4.537 6 7.272v2.28c-2.8480379-.1106148-5.5643303-1.2286713-7.665-3.155-.6183859-.6551518-1.6168354-.7742754-2.372-.283-.8629829.5748397-1.2013479 1.6781858-.809 2.638 1.7938177 4.4973726 6.0142692 7.5621223 10.846 7.876v2.463c-4.441-.252-8.461-2.132-10.647-5.07-.4845614-.7008815-1.4017927-.9536784-2.177-.6-.9006024.4517943-1.3653593 1.4695162-1.117 2.446 1.5601661 6.5556934 7.2160421 11.3255187 13.941 11.757zm-4-27.624c-.0504725-.5759868.1331752-1.1480264.5094898-1.5869974s.9135751-.7078707 1.4905102-.7460026c.8502811.0012882 1.6525793.3941377 2.175 1.065.185911.2679948.4908377.4284826.817.43.3281159-.0091354.6342695-.1669959.832-.429.5224339-.6715144 1.3251961-1.0647793 2.176-1.066.5769351.0381319 1.1141956.3070316 1.4905102.7460026s.5599623 1.0110106.5094898 1.5869974c0 1.877-1.814 3.883-5 5.546-3.186-1.663-5-3.669-5-5.546zm-4.975 8.043c-.0201983-.0476362-.0287678-.0993959-.025-.151 2.7251083 2.4786795 6.3047356 3.8048657 9.987 3.7h.012.012c3.6858773.1023022 7.2681146-1.2270143 9.995-3.709.0035869.0519208-.0049727.1039632-.025.152-1.6367043 4.0609271-5.6031268 6.6964661-9.981 6.632-4.3731317.0612796-8.3349313-2.5695937-9.975-6.624zm9.975 13.098c5.258 0 10.165-2.11 12.957-5.545-1.5070543 5.9222603-6.8384985 10.0683978-12.949503 10.0705208-6.1110044.002123-11.4453281-4.140309-12.956497-10.0615208 2.784 3.426 7.692 5.536 12.949 5.536z" fill="#dbad6a" data-original="#000000" style=""></path></g></g></g></svg>