<svg id="Слой_1" data-name="Слой 1" xmlns="http://www.w3.org/2000/svg" viewBox="0 0 346.85 106.78"><defs><style>.cls-1{fill:#fff;}.cls-2{fill:#dbad6a;}</style></defs><g id="Template"><polygon class="cls-1" points="20.79 39.26 21.28 42.74 23.33 25.57 22.32 26.36 20.79 39.26"/><polygon class="cls-1" points="95.72 64.17 96.73 63.37 98.27 50.47 97.77 47 95.72 64.17"/><polygon class="cls-1" points="83.75 14.11 80.49 12.81 94.34 23.17 94.15 21.9 83.75 14.11"/><polygon class="cls-1" points="45 8.52 42.25 10.69 58.15 3.87 56.95 3.4 45 8.52"/><polygon class="cls-1" points="62.1 86.34 74.05 81.22 76.8 79.05 60.91 85.86 62.1 86.34"/><polygon class="cls-1" points="94.87 71.31 84.84 75.61 82.08 77.78 95.47 72.04 95.7 71.94 96.35 66.55 95.34 67.34 94.87 71.31"/><polygon class="cls-1" points="24.9 67.83 35.3 75.62 38.57 76.92 24.71 66.56 24.9 67.83"/><polygon class="cls-1" points="18.96 62.25 20.25 51.41 19.75 47.94 17.99 62.67 22.34 65.92 22.16 64.65 18.96 62.25"/><polygon class="cls-1" points="54.3 88.69 45.56 82.16 42.3 80.86 53.97 89.58 54.17 89.73 59.16 87.6 57.97 87.12 54.3 88.69"/><polygon class="cls-1" points="64.88 0 59.89 2.14 61.09 2.61 64.75 1.04 73.49 7.58 76.75 8.88 65.09 0.16 64.88 0"/><polygon class="cls-1" points="96.9 25.09 100.09 27.48 98.81 38.32 99.3 41.79 101.06 27.07 96.72 23.82 96.9 25.09"/><polygon class="cls-1" points="23.34 17.8 22.7 23.18 23.71 22.39 24.19 18.43 34.21 14.13 36.97 11.96 23.59 17.7 23.34 17.8"/><path class="cls-1" d="M187.05,350.58l-42-16.78-35.31,27.78-.2.16L116,406.2l0,.27,41.71,16.68.24.1,35.31-27.78.21-.16-6.41-44.47Zm-29.22,71.63-41-16.39-6.29-43.69,34.69-27.29,41,16.39,6.29,43.69Z" transform="translate(-92.01 -333.66)"/><path class="cls-2" d="M201.7,358.2s.19,1.23.53,2.78.65,3.48,1.07,4.93c.24.71.5,1.38.77,2a15.23,15.23,0,0,0,.86,1.59,13.8,13.8,0,0,0,.94,1.46,10.18,10.18,0,0,0,.3-1.75,14.53,14.53,0,0,0,0-1.85,8.94,8.94,0,0,0-.41-2.19,19.54,19.54,0,0,0-2.33-4.66C202.47,359.15,201.7,358.2,201.7,358.2Z" transform="translate(-92.01 -333.66)"/><path class="cls-2" d="M201.16,369.1l.16.52c.1.32.25.76.42,1.28a12.83,12.83,0,0,0,1.57,3.2,4.34,4.34,0,0,0,2.12,1.59,2.92,2.92,0,0,0,1.06.16,4.43,4.43,0,0,0-.08-.58c-.07-.35-.17-.85-.32-1.41a9,9,0,0,0-1.6-3.39,3.66,3.66,0,0,0-2.25-1.37A3.15,3.15,0,0,0,201.16,369.1Z" transform="translate(-92.01 -333.66)"/><path class="cls-2" d="M209.28,367.05l.13.61a10.82,10.82,0,0,1,.23,1.55,10.45,10.45,0,0,1-.28,4,3.86,3.86,0,0,1-1.6,2.21,2.74,2.74,0,0,1-1,.4s0-.23,0-.59-.07-.87-.08-1.45A15.71,15.71,0,0,1,207,370a4.6,4.6,0,0,1,1.39-2.36A2.56,2.56,0,0,1,209.28,367.05Z" transform="translate(-92.01 -333.66)"/><path class="cls-2" d="M202.44,376.09a16.17,16.17,0,0,0,.3,1.86,12.56,12.56,0,0,0,1.12,3.4,4.31,4.31,0,0,0,1.86,1.86,2.83,2.83,0,0,0,1,.31,15.4,15.4,0,0,0-.1-2,9.64,9.64,0,0,0-1.12-3.58,3.81,3.81,0,0,0-2-1.67A2.76,2.76,0,0,0,202.44,376.09Z" transform="translate(-92.01 -333.66)"/><path class="cls-2" d="M210.76,375.19a20.82,20.82,0,0,1,0,2.19,10.88,10.88,0,0,1-.82,3.93,4,4,0,0,1-1.92,2,2.76,2.76,0,0,1-1.05.25s0-.88.19-2a14,14,0,0,1,.84-3.75,4.29,4.29,0,0,1,1.71-2.14A2.6,2.6,0,0,1,210.76,375.19Z" transform="translate(-92.01 -333.66)"/><path class="cls-2" d="M202.7,383.2s0,.2,0,.54,0,.8,0,1.35a14.68,14.68,0,0,0,.2,1.75,8,8,0,0,0,.44,1.76,4.5,4.5,0,0,0,1.59,2.1,2.74,2.74,0,0,0,1,.45l.08-.58a9.41,9.41,0,0,0,.09-1.44,17.53,17.53,0,0,0-.1-1.87,8.47,8.47,0,0,0-.51-1.83,3.73,3.73,0,0,0-1.79-1.94A2.78,2.78,0,0,0,202.7,383.2Z" transform="translate(-92.01 -333.66)"/><path class="cls-2" d="M211.07,383.45s0,.23,0,.63a10,10,0,0,1-.21,1.54,15.79,15.79,0,0,1-.48,1.95,9.4,9.4,0,0,1-.88,1.83,3.81,3.81,0,0,1-2.16,1.69,2.63,2.63,0,0,1-1.08.1s0-.21.12-.57.2-.85.33-1.42a17.09,17.09,0,0,1,.57-1.82,9.53,9.53,0,0,1,.79-1.78,4.64,4.64,0,0,1,2-1.89A2.68,2.68,0,0,1,211.07,383.45Z" transform="translate(-92.01 -333.66)"/><path class="cls-2" d="M202,390.27s-.13.8-.2,1.88a12.63,12.63,0,0,0,.14,3.56,4.38,4.38,0,0,0,1.28,2.3,2.78,2.78,0,0,0,.91.58s.06-.21.17-.55.19-.86.27-1.43a9.25,9.25,0,0,0-.07-3.74,3.76,3.76,0,0,0-1.51-2.16A2.9,2.9,0,0,0,202,390.27Z" transform="translate(-92.01 -333.66)"/><path class="cls-2" d="M210.25,391.68a16.27,16.27,0,0,1-.53,2.12,10.61,10.61,0,0,1-1.9,3.55,3.76,3.76,0,0,1-2.36,1.37,2.67,2.67,0,0,1-1.09-.05l.21-.55c.12-.34.29-.82.52-1.36a15,15,0,0,1,1.85-3.37,4.53,4.53,0,0,1,2.22-1.6A2.77,2.77,0,0,1,210.25,391.68Z" transform="translate(-92.01 -333.66)"/><path class="cls-2" d="M200.33,397.17a16.13,16.13,0,0,0-.47,1.83,12.49,12.49,0,0,0-.36,3.54,4.27,4.27,0,0,0,.95,2.47,2.81,2.81,0,0,0,.81.7,4,4,0,0,0,.24-.53c.13-.34.31-.82.48-1.37a9.51,9.51,0,0,0,.45-3.72,3.84,3.84,0,0,0-1.19-2.35A2.85,2.85,0,0,0,200.33,397.17Z" transform="translate(-92.01 -333.66)"/><path class="cls-2" d="M208.3,399.72s-.31.9-.84,2a10.71,10.71,0,0,1-2.37,3.26,3.91,3.91,0,0,1-2.53,1,2.64,2.64,0,0,1-1.07-.2s.11-.19.27-.52.41-.77.72-1.27a14.34,14.34,0,0,1,2.31-3.08,4.38,4.38,0,0,1,2.42-1.27A2.8,2.8,0,0,1,208.3,399.72Z" transform="translate(-92.01 -333.66)"/><path class="cls-2" d="M197.7,403.77a15.77,15.77,0,0,0-.73,1.73,12.69,12.69,0,0,0-.85,3.47,4.29,4.29,0,0,0,.59,2.57,2.86,2.86,0,0,0,.72.81,16.68,16.68,0,0,0,1-1.78,9.18,9.18,0,0,0,1-3.62,3.8,3.8,0,0,0-.84-2.49A2.81,2.81,0,0,0,197.7,403.77Z" transform="translate(-92.01 -333.66)"/><path class="cls-2" d="M205.24,407.41a21.58,21.58,0,0,1-1.12,1.88,10.73,10.73,0,0,1-2.8,2.9,3.91,3.91,0,0,1-2.66.65,2.68,2.68,0,0,1-1-.34,19.09,19.09,0,0,1,1.23-1.64,14.58,14.58,0,0,1,2.71-2.73,4.35,4.35,0,0,1,2.58-.91A2.78,2.78,0,0,1,205.24,407.41Z" transform="translate(-92.01 -333.66)"/><path class="cls-2" d="M194.17,409.93l-.29.46c-.18.28-.43.68-.68,1.16a13.16,13.16,0,0,0-1.32,3.32,4.19,4.19,0,0,0,.23,2.62,2.93,2.93,0,0,0,.59.91,18,18,0,0,0,1.22-1.63,9.24,9.24,0,0,0,1.45-3.46,3.8,3.8,0,0,0-.48-2.58A3.1,3.1,0,0,0,194.17,409.93Z" transform="translate(-92.01 -333.66)"/><path class="cls-2" d="M201.12,414.59a5.06,5.06,0,0,1-.37.51c-.24.3-.59.73-1,1.19a10.79,10.79,0,0,1-3.16,2.49,4,4,0,0,1-2.73.27,2.68,2.68,0,0,1-1-.48,18,18,0,0,1,1.45-1.45,14.54,14.54,0,0,1,3.06-2.33,4.47,4.47,0,0,1,2.69-.54A2.69,2.69,0,0,1,201.12,414.59Z" transform="translate(-92.01 -333.66)"/><path class="cls-2" d="M189.81,415.54l-.34.42c-.22.26-.52.62-.84,1.06a12.67,12.67,0,0,0-1.76,3.1,4.21,4.21,0,0,0-.15,2.63,2.9,2.9,0,0,0,.47,1,18.86,18.86,0,0,0,1.43-1.44,9.41,9.41,0,0,0,1.91-3.23,3.65,3.65,0,0,0-.12-2.62A3.08,3.08,0,0,0,189.81,415.54Z" transform="translate(-92.01 -333.66)"/><path class="cls-2" d="M196.05,421.12s-.15.18-.43.46-.69.64-1.16,1a10.76,10.76,0,0,1-3.48,2,4,4,0,0,1-2.74-.11,2.62,2.62,0,0,1-.89-.62A19.82,19.82,0,0,1,189,422.7a14.73,14.73,0,0,1,3.34-1.89,4.46,4.46,0,0,1,2.75-.16A2.58,2.58,0,0,1,196.05,421.12Z" transform="translate(-92.01 -333.66)"/><path class="cls-2" d="M184.71,420.5l-.39.37c-.25.23-.6.54-1,.93a12.61,12.61,0,0,0-2.18,2.83,4.26,4.26,0,0,0-.51,2.58,3,3,0,0,0,.32,1,15.5,15.5,0,0,0,1.63-1.22,9.38,9.38,0,0,0,2.33-2.93,3.69,3.69,0,0,0,.25-2.62A3,3,0,0,0,184.71,420.5Z" transform="translate(-92.01 -333.66)"/><path class="cls-2" d="M190.12,426.89l-.49.4c-.31.23-.77.53-1.29.86a10.58,10.58,0,0,1-3.72,1.53,4,4,0,0,1-2.71-.49,2.63,2.63,0,0,1-.79-.74s.75-.46,1.79-1a14.58,14.58,0,0,1,3.58-1.4,4.47,4.47,0,0,1,2.73.22A2.71,2.71,0,0,1,190.12,426.89Z" transform="translate(-92.01 -333.66)"/><path class="cls-2" d="M179,424.7s-.67.46-1.53,1.1c-.43.32-.89.73-1.34,1.14a8.08,8.08,0,0,0-1.21,1.35,4.38,4.38,0,0,0-.86,2.49,3.11,3.11,0,0,0,.17,1.07l.53-.26a10.44,10.44,0,0,0,1.25-.73,9.12,9.12,0,0,0,2.72-2.57,3.62,3.62,0,0,0,.61-2.56A3,3,0,0,0,179,424.7Z" transform="translate(-92.01 -333.66)"/><path class="cls-2" d="M183.45,431.78a11.87,11.87,0,0,1-1.94,1,13.5,13.5,0,0,1-1.89.68,9.06,9.06,0,0,1-2,.3,3.85,3.85,0,0,1-2.61-.85,2.66,2.66,0,0,1-.68-.84l.54-.23,1.37-.5a14.71,14.71,0,0,1,3.74-.89,4.72,4.72,0,0,1,2.68.59A2.66,2.66,0,0,1,183.45,431.78Z" transform="translate(-92.01 -333.66)"/><path class="cls-2" d="M172.73,428.07l-.48.24-1.19.63a12.61,12.61,0,0,0-1.48.95,7.88,7.88,0,0,0-1.4,1.15,4.59,4.59,0,0,0-1.2,2.35,2.93,2.93,0,0,0,0,1.08l.55-.18a9.32,9.32,0,0,0,1.34-.55,15,15,0,0,0,1.64-.9,8.29,8.29,0,0,0,1.42-1.26,3.65,3.65,0,0,0,1-2.45A3,3,0,0,0,172.73,428.07Z" transform="translate(-92.01 -333.66)"/><path class="cls-2" d="M176.17,435.7l-.59.24a11.07,11.07,0,0,1-1.48.49,17.51,17.51,0,0,1-2,.41,8.63,8.63,0,0,1-2,0,3.79,3.79,0,0,1-2.46-1.21,2.58,2.58,0,0,1-.56-.92l.57-.15,1.42-.31A16.52,16.52,0,0,1,171,434a9.15,9.15,0,0,1,2-.06,4.56,4.56,0,0,1,2.57,1A2.67,2.67,0,0,1,176.17,435.7Z" transform="translate(-92.01 -333.66)"/><path class="cls-2" d="M166.07,430.52l-.52.17c-.32.1-.75.28-1.26.47a12.37,12.37,0,0,0-3.14,1.67,4.41,4.41,0,0,0-1.52,2.16,3,3,0,0,0-.13,1.07l.58-.09a14.36,14.36,0,0,0,1.4-.37,9,9,0,0,0,3.33-1.71,3.66,3.66,0,0,0,1.29-2.29A2.91,2.91,0,0,0,166.07,430.52Z" transform="translate(-92.01 -333.66)"/><path class="cls-2" d="M168.4,438.56l-.61.15a14.65,14.65,0,0,1-1.53.29,10.73,10.73,0,0,1-4-.15,3.79,3.79,0,0,1-2.26-1.54,2.6,2.6,0,0,1-.43-1l.58-.06c.37,0,.87-.1,1.46-.12a15.12,15.12,0,0,1,3.84.19,4.46,4.46,0,0,1,2.4,1.31A2.57,2.57,0,0,1,168.4,438.56Z" transform="translate(-92.01 -333.66)"/><path class="cls-2" d="M159.13,432a15,15,0,0,0-1.85.38,12.43,12.43,0,0,0-3.35,1.22,4.2,4.2,0,0,0-1.8,1.93,3,3,0,0,0-.28,1.05,18,18,0,0,0,2-.19,9.39,9.39,0,0,0,3.54-1.22,3.87,3.87,0,0,0,1.6-2.1A2.86,2.86,0,0,0,159.13,432Z" transform="translate(-92.01 -333.66)"/><path class="cls-2" d="M160.31,440.31s-.94.11-2.18.13a10.75,10.75,0,0,1-4-.71,3.9,3.9,0,0,1-2-1.83,2.6,2.6,0,0,1-.29-1,19.35,19.35,0,0,1,2,.09,14.88,14.88,0,0,1,3.78.74,4.35,4.35,0,0,1,2.2,1.62A2.75,2.75,0,0,1,160.31,440.31Z" transform="translate(-92.01 -333.66)"/><path class="cls-2" d="M101.39,358.2s-.77,1-1.71,2.3a20.14,20.14,0,0,0-2.32,4.67,8.82,8.82,0,0,0-.42,2.18,14.53,14.53,0,0,0,0,1.85,9.93,9.93,0,0,0,.3,1.75,13.8,13.8,0,0,0,.94-1.46A15.23,15.23,0,0,0,99,367.9c.27-.61.53-1.28.77-2,.42-1.44.79-3.35,1.07-4.93S101.39,358.2,101.39,358.2Z" transform="translate(-92.01 -333.66)"/><path class="cls-2" d="M93.81,367.05s0,.23-.14.61a10.6,10.6,0,0,0-.23,1.55,10.26,10.26,0,0,0,.29,4,3.78,3.78,0,0,0,1.6,2.21,2.67,2.67,0,0,0,1,.4s0-.23,0-.59.07-.87.08-1.45a15.71,15.71,0,0,0-.33-3.84,4.67,4.67,0,0,0-1.38-2.36A2.65,2.65,0,0,0,93.81,367.05Z" transform="translate(-92.01 -333.66)"/><path class="cls-2" d="M101.92,369.1l-.15.52c-.11.32-.26.76-.43,1.28a13.15,13.15,0,0,1-1.56,3.2,4.43,4.43,0,0,1-2.12,1.59,2.92,2.92,0,0,1-1.06.16,3.37,3.37,0,0,1,.07-.58c.07-.35.18-.85.33-1.41a9,9,0,0,1,1.59-3.39,3.72,3.72,0,0,1,2.25-1.37A3.15,3.15,0,0,1,101.92,369.1Z" transform="translate(-92.01 -333.66)"/><path class="cls-2" d="M92.32,375.19a20.82,20.82,0,0,0,0,2.19,10.69,10.69,0,0,0,.83,3.93,3.93,3.93,0,0,0,1.91,2,2.76,2.76,0,0,0,1,.25s0-.88-.18-2a14,14,0,0,0-.84-3.75,4.4,4.4,0,0,0-1.71-2.14A2.67,2.67,0,0,0,92.32,375.19Z" transform="translate(-92.01 -333.66)"/><path class="cls-2" d="M100.64,376.09a13.88,13.88,0,0,1-.3,1.86,12.56,12.56,0,0,1-1.12,3.4,4.35,4.35,0,0,1-1.85,1.86,2.9,2.9,0,0,1-1,.31,15.4,15.4,0,0,1,.1-2,9.83,9.83,0,0,1,1.12-3.58,3.81,3.81,0,0,1,2-1.67A3,3,0,0,1,100.64,376.09Z" transform="translate(-92.01 -333.66)"/><path class="cls-2" d="M92,383.45s0,.23,0,.63a11.48,11.48,0,0,0,.21,1.54,15.89,15.89,0,0,0,.49,1.95,8.38,8.38,0,0,0,.88,1.83,3.76,3.76,0,0,0,2.15,1.69,2.63,2.63,0,0,0,1.08.1s0-.21-.12-.57-.2-.85-.33-1.42a17.09,17.09,0,0,0-.57-1.82,9.53,9.53,0,0,0-.79-1.78,4.63,4.63,0,0,0-2-1.89A2.7,2.7,0,0,0,92,383.45Z" transform="translate(-92.01 -333.66)"/><path class="cls-2" d="M100.38,383.2s0,.2,0,.54,0,.8-.05,1.35a14.68,14.68,0,0,1-.2,1.75,8.54,8.54,0,0,1-.43,1.76,4.57,4.57,0,0,1-1.59,2.1,2.82,2.82,0,0,1-1,.45s0-.22-.09-.58a9.59,9.59,0,0,1-.08-1.44,13.5,13.5,0,0,1,.1-1.87,7.47,7.47,0,0,1,.51-1.83,3.68,3.68,0,0,1,1.78-1.94A2.83,2.83,0,0,1,100.38,383.2Z" transform="translate(-92.01 -333.66)"/><path class="cls-2" d="M92.83,391.68a17.52,17.52,0,0,0,.54,2.12,10.58,10.58,0,0,0,1.89,3.55,3.78,3.78,0,0,0,2.37,1.37,2.63,2.63,0,0,0,1.08-.05s-.08-.2-.2-.55-.3-.82-.52-1.36a15.09,15.09,0,0,0-1.86-3.37,4.49,4.49,0,0,0-2.22-1.6A2.76,2.76,0,0,0,92.83,391.68Z" transform="translate(-92.01 -333.66)"/><path class="cls-2" d="M101.08,390.27s.13.8.2,1.88a12.62,12.62,0,0,1-.13,3.56,4.38,4.38,0,0,1-1.29,2.3,2.78,2.78,0,0,1-.91.58l-.16-.55c-.09-.36-.19-.86-.28-1.43a9.25,9.25,0,0,1,.08-3.74,3.68,3.68,0,0,1,1.51-2.16A2.9,2.9,0,0,1,101.08,390.27Z" transform="translate(-92.01 -333.66)"/><path class="cls-2" d="M94.78,399.72s.31.9.84,2A10.71,10.71,0,0,0,98,405a3.93,3.93,0,0,0,2.53,1,2.64,2.64,0,0,0,1.07-.2l-.27-.52c-.17-.32-.41-.77-.71-1.27A15,15,0,0,0,98.29,401a4.38,4.38,0,0,0-2.42-1.27A2.83,2.83,0,0,0,94.78,399.72Z" transform="translate(-92.01 -333.66)"/><path class="cls-2" d="M102.76,397.17a17.71,17.71,0,0,1,.46,1.83,12.87,12.87,0,0,1,.37,3.54,4.27,4.27,0,0,1-1,2.47,2.81,2.81,0,0,1-.81.7,3.45,3.45,0,0,1-.23-.53c-.14-.34-.31-.82-.49-1.37a9.51,9.51,0,0,1-.45-3.72,3.79,3.79,0,0,1,1.2-2.35A2.85,2.85,0,0,1,102.76,397.17Z" transform="translate(-92.01 -333.66)"/><path class="cls-2" d="M97.85,407.41A21.58,21.58,0,0,0,99,409.29a10.69,10.69,0,0,0,2.79,2.9,3.92,3.92,0,0,0,2.66.65,2.59,2.59,0,0,0,1-.34,20.15,20.15,0,0,0-1.22-1.64,15.21,15.21,0,0,0-2.71-2.73,4.37,4.37,0,0,0-2.59-.91A2.76,2.76,0,0,0,97.85,407.41Z" transform="translate(-92.01 -333.66)"/><path class="cls-2" d="M105.38,403.77a15.77,15.77,0,0,1,.73,1.73A12.69,12.69,0,0,1,107,409a4.22,4.22,0,0,1-.59,2.57,2.86,2.86,0,0,1-.72.81,19.14,19.14,0,0,1-1-1.78,9.53,9.53,0,0,1-1-3.62,3.8,3.8,0,0,1,.84-2.49A3,3,0,0,1,105.38,403.77Z" transform="translate(-92.01 -333.66)"/><path class="cls-2" d="M102,414.59s.13.2.37.51.59.73,1,1.19a10.7,10.7,0,0,0,3.17,2.49,4,4,0,0,0,2.73.27,2.68,2.68,0,0,0,1-.48,18.83,18.83,0,0,0-1.44-1.45,14.8,14.8,0,0,0-3.06-2.33,4.51,4.51,0,0,0-2.7-.54A2.69,2.69,0,0,0,102,414.59Z" transform="translate(-92.01 -333.66)"/><path class="cls-2" d="M108.92,409.93s.1.17.29.46.42.68.67,1.16a12.45,12.45,0,0,1,1.32,3.32,4.27,4.27,0,0,1-.22,2.62,3.05,3.05,0,0,1-.6.91,18,18,0,0,1-1.22-1.63,9.39,9.39,0,0,1-1.44-3.46,3.75,3.75,0,0,1,.47-2.58A3,3,0,0,1,108.92,409.93Z" transform="translate(-92.01 -333.66)"/><path class="cls-2" d="M107,421.12s.15.18.42.46.69.64,1.17,1a10.71,10.71,0,0,0,3.47,2,4,4,0,0,0,2.74-.11,2.62,2.62,0,0,0,.89-.62,18.53,18.53,0,0,0-1.63-1.22,14.8,14.8,0,0,0-3.35-1.89,4.5,4.5,0,0,0-2.74-.16A2.48,2.48,0,0,0,107,421.12Z" transform="translate(-92.01 -333.66)"/><path class="cls-2" d="M113.28,415.54s.12.16.34.42.52.62.83,1.06a12.38,12.38,0,0,1,1.77,3.1,4.27,4.27,0,0,1,.14,2.63,3,3,0,0,1-.46,1,17.83,17.83,0,0,1-1.44-1.44,9.57,9.57,0,0,1-1.91-3.23,3.76,3.76,0,0,1,.12-2.62A3,3,0,0,1,113.28,415.54Z" transform="translate(-92.01 -333.66)"/><path class="cls-2" d="M113,426.89l.49.4c.31.23.77.53,1.3.86a10.5,10.5,0,0,0,3.72,1.53,3.94,3.94,0,0,0,2.7-.49,2.63,2.63,0,0,0,.79-.74s-.74-.46-1.79-1a14.66,14.66,0,0,0-3.57-1.4,4.49,4.49,0,0,0-2.74.22A2.71,2.71,0,0,0,113,426.89Z" transform="translate(-92.01 -333.66)"/><path class="cls-2" d="M118.37,420.5l.39.37c.25.23.6.54,1,.93a12.9,12.9,0,0,1,2.18,2.83,4.24,4.24,0,0,1,.5,2.58,2.78,2.78,0,0,1-.32,1,16.1,16.1,0,0,1-1.62-1.22,9.56,9.56,0,0,1-2.34-2.93,3.69,3.69,0,0,1-.25-2.62A3,3,0,0,1,118.37,420.5Z" transform="translate(-92.01 -333.66)"/><path class="cls-2" d="M119.63,431.78a12.43,12.43,0,0,0,1.94,1,14,14,0,0,0,1.89.68,9.15,9.15,0,0,0,2,.3,3.83,3.83,0,0,0,2.61-.85,2.66,2.66,0,0,0,.68-.84l-.54-.23-1.37-.5a14.73,14.73,0,0,0-3.73-.89,4.68,4.68,0,0,0-2.68.59A2.79,2.79,0,0,0,119.63,431.78Z" transform="translate(-92.01 -333.66)"/><path class="cls-2" d="M124.1,424.7s.67.46,1.53,1.1c.43.32.89.73,1.34,1.14a8.14,8.14,0,0,1,1.22,1.35,4.36,4.36,0,0,1,.85,2.49,2.84,2.84,0,0,1-.17,1.07l-.52-.26a10.44,10.44,0,0,1-1.26-.73,9.24,9.24,0,0,1-2.72-2.57,3.67,3.67,0,0,1-.61-2.56A3,3,0,0,1,124.1,424.7Z" transform="translate(-92.01 -333.66)"/><path class="cls-2" d="M126.92,435.7l.58.24a11.58,11.58,0,0,0,1.48.49,18,18,0,0,0,2,.41,8.63,8.63,0,0,0,2,0,3.74,3.74,0,0,0,2.46-1.21,2.72,2.72,0,0,0,.57-.92l-.57-.15-1.43-.31a16.52,16.52,0,0,0-1.88-.29,9.13,9.13,0,0,0-1.95-.06,4.49,4.49,0,0,0-2.56,1A2.67,2.67,0,0,0,126.92,435.7Z" transform="translate(-92.01 -333.66)"/><path class="cls-2" d="M130.35,428.07l.49.24,1.18.63a12.7,12.7,0,0,1,1.49.95A8.18,8.18,0,0,1,134.9,431a4.44,4.44,0,0,1,1.2,2.35,3.1,3.1,0,0,1,0,1.08l-.56-.18a9.32,9.32,0,0,1-1.34-.55,14.84,14.84,0,0,1-1.63-.9,8,8,0,0,1-1.43-1.26,3.68,3.68,0,0,1-1-2.45A2.86,2.86,0,0,1,130.35,428.07Z" transform="translate(-92.01 -333.66)"/><path class="cls-2" d="M134.68,438.56l.61.15a15.45,15.45,0,0,0,1.54.29,10.68,10.68,0,0,0,4-.15,3.82,3.82,0,0,0,2.27-1.54,2.67,2.67,0,0,0,.42-1l-.58-.06c-.36,0-.87-.1-1.45-.12a15.12,15.12,0,0,0-3.84.19,4.54,4.54,0,0,0-2.41,1.31A2.57,2.57,0,0,0,134.68,438.56Z" transform="translate(-92.01 -333.66)"/><path class="cls-2" d="M137,430.52l.51.17c.32.1.76.28,1.26.47a12.43,12.43,0,0,1,3.15,1.67,4.38,4.38,0,0,1,1.51,2.16,3,3,0,0,1,.13,1.07L143,436c-.35-.07-.85-.2-1.4-.37a9,9,0,0,1-3.33-1.71A3.71,3.71,0,0,1,137,431.6,2.76,2.76,0,0,1,137,430.52Z" transform="translate(-92.01 -333.66)"/><path class="cls-2" d="M142.77,440.31s.94.11,2.19.13a10.79,10.79,0,0,0,4-.71,4,4,0,0,0,2-1.83,2.68,2.68,0,0,0,.28-1,19.35,19.35,0,0,0-2,.09,15,15,0,0,0-3.78.74,4.35,4.35,0,0,0-2.2,1.62A2.75,2.75,0,0,0,142.77,440.31Z" transform="translate(-92.01 -333.66)"/><path class="cls-2" d="M144,432a15.38,15.38,0,0,1,1.85.38,12.55,12.55,0,0,1,3.35,1.22,4.26,4.26,0,0,1,1.8,1.93,2.82,2.82,0,0,1,.27,1.05,18,18,0,0,1-2-.19,9.51,9.51,0,0,1-3.54-1.22,3.87,3.87,0,0,1-1.6-2.1A3,3,0,0,1,144,432Z" transform="translate(-92.01 -333.66)"/><path class="cls-1" d="M154.74,376c6,.14,11.64.29,21.64-5.76a.35.35,0,0,0,.08-.05l.18-.11a1.14,1.14,0,0,0,.43-1.37c-.12-.35-.26-.7-.41-1-4.24-9.64-18.9-12.53-32.73-6.45-10.74,4.73-17.82,13.47-18.46,21.67a4.36,4.36,0,0,0,0,.51.27.27,0,0,0,0,.12,1,1,0,0,0,1.23.42,2.26,2.26,0,0,1,.26-.16C140.42,375.59,147.68,375.78,154.74,376Z" transform="translate(-92.01 -333.66)"/><path class="cls-1" d="M177.62,375.67a.85.85,0,0,0,0-.52.91.91,0,0,0-1.16-.43l-.32.17c-9.73,5.34-15.78,5.18-21.68,5-6.7-.17-13.6-.34-27.16,8.25l-.29.18s0,0,0,0a1.12,1.12,0,0,0-.4,1.25l.07.17c4.31,9.55,18.9,12.4,32.68,6.34C169.52,391.64,176.42,383.5,177.62,375.67Z" transform="translate(-92.01 -333.66)"/></g><path class="cls-1" d="M309.58,394.13a1.21,1.21,0,0,1,.52-.13.48.48,0,0,1,.4.17.64.64,0,0,1,.14.42,1.44,1.44,0,0,1-.26.74,2.31,2.31,0,0,1-.8.74l-3.49,2-3.91,2.31-4.92,2.95a25.91,25.91,0,0,1-4.16,2.07,8.66,8.66,0,0,1-2.8.6,2.88,2.88,0,0,1-1.25-.23,2.31,2.31,0,0,1-.8-.6,2.15,2.15,0,0,1-.45-.86,3.62,3.62,0,0,1-.13-1,27.39,27.39,0,0,1,.26-3.32c.17-1.33.4-2.82.69-4.44s.63-3.34,1-5.14.8-3.62,1.27-5.43.91-3.6,1.36-5.33.85-3.33,1.22-4.8.71-2.76,1-3.86.49-1.94.64-2.5l-22.19,34.11a2.6,2.6,0,0,1-.24.37,4.89,4.89,0,0,1-.63.78,4.59,4.59,0,0,1-.95.76,2.29,2.29,0,0,1-1.2.34c-.41,0-.67-.12-.79-.36a1.62,1.62,0,0,1-.17-.73c0-.09,0-.19,0-.3a.36.36,0,0,1,.06-.2l2.39-25.09c-.65,1.11-1.44,2.44-2.39,4s-2,3.23-3.19,5-2.47,3.66-3.86,5.6-2.84,3.87-4.35,5.76a7.19,7.19,0,0,1,.67,3.09,9.53,9.53,0,0,1-.37,2.62,11.28,11.28,0,0,1-1.06,2.55,12.54,12.54,0,0,1-1.71,2.31,11.44,11.44,0,0,1-2.28,1.86,11.11,11.11,0,0,1-2.78,1.24,11.4,11.4,0,0,1-3.25.45.28.28,0,0,1-.18-.1.76.76,0,0,1-.18-.24,2.39,2.39,0,0,1-.16-.32.93.93,0,0,1-.07-.29.22.22,0,0,1,.06-.12.19.19,0,0,1,.15-.08,8.12,8.12,0,0,0,3.72-.88,11,11,0,0,0,3-2.26,11.13,11.13,0,0,0,2.06-3.06,7.92,7.92,0,0,0,.76-3.31,6,6,0,0,0-.21-1.6q-2.08,2.24-4.29,4.22a36.8,36.8,0,0,1-4.43,3.46,23.83,23.83,0,0,1-4.49,2.34,12.34,12.34,0,0,1-4.42.86,14,14,0,0,1-3.1-.32,6.9,6.9,0,0,1-2.37-1,4.55,4.55,0,0,1-1.53-1.73,5.44,5.44,0,0,1-.54-2.51,7.69,7.69,0,0,1,.83-3.54,11.22,11.22,0,0,1,2.2-2.92,15.49,15.49,0,0,1,3.18-2.32,23.44,23.44,0,0,1,3.76-1.68,27.23,27.23,0,0,1,3.92-1,22.2,22.2,0,0,1,3.67-.33,14.54,14.54,0,0,1,4.27.54,8.94,8.94,0,0,1,3,1.5q2.91-3.54,5.61-7.45t4.93-7.88a74.11,74.11,0,0,0,3.8-7.79,38,38,0,0,0,2.24-7.21s.06-.27.17-.72.27-1,.49-1.64.48-1.35.79-2.1a14.24,14.24,0,0,1,1-2.07,7.38,7.38,0,0,1,1.27-1.58,2.19,2.19,0,0,1,1.49-.64,1.7,1.7,0,0,1,1.05.3,2.1,2.1,0,0,1,.62.74,3.28,3.28,0,0,1,.31,1,7.63,7.63,0,0,1,.08,1c0,.19,0,.37,0,.54s0,.32,0,.45l-4.43,34.63,21.79-32.92a11.48,11.48,0,0,1,.24-1.26,4.55,4.55,0,0,1,.53-1.24,3,3,0,0,1,.9-1,2.31,2.31,0,0,1,1.35-.37A4.87,4.87,0,0,1,301,359a1.81,1.81,0,0,1,.71.32.81.81,0,0,1,.29.43,2.12,2.12,0,0,1,.06.49,23.34,23.34,0,0,1-.41,3.77c-.28,1.55-.66,3.28-1.17,5.17s-1,3.93-1.62,6.1-1.15,4.33-1.72,6.49-1.14,4.27-1.69,6.34l-1.5,5.66c-.45,1.69-.83,3.15-1.13,4.35a12.78,12.78,0,0,0-.44,2.58c0,.18,0,.39,0,.62a2.08,2.08,0,0,0,.18.64,1.27,1.27,0,0,0,.42.5,1.29,1.29,0,0,0,.78.21,4,4,0,0,0,1.19-.24,11.78,11.78,0,0,0,1.79-.85c2.43-1.36,4.72-2.68,6.86-3.94S307.75,395.24,309.58,394.13Zm-71,15.64a6.74,6.74,0,0,0,3-.89,25.31,25.31,0,0,0,3.74-2.48,52.31,52.31,0,0,0,4.24-3.79c1.48-1.46,3-3.06,4.47-4.78a7.07,7.07,0,0,0-2.31-1.07,11.85,11.85,0,0,0-3.29-.4,22.34,22.34,0,0,0-3.39.28,24.2,24.2,0,0,0-3.46.83,20.35,20.35,0,0,0-3.22,1.33,12.06,12.06,0,0,0-2.65,1.83,8.72,8.72,0,0,0-1.82,2.33,5.93,5.93,0,0,0-.68,2.79,3.42,3.42,0,0,0,1.45,3.06A7.12,7.12,0,0,0,238.54,409.77Z" transform="translate(-92.01 -333.66)"/><path class="cls-1" d="M331.48,384.71a5.17,5.17,0,0,1,2.4.54,5.1,5.1,0,0,1,1.78,1.44,6.59,6.59,0,0,1,1.11,2.14,8.92,8.92,0,0,1,.38,2.62,10,10,0,0,1-.19,1.8,15.38,15.38,0,0,1-.56,2,18.24,18.24,0,0,1-.87,2.07,14,14,0,0,1-1.15,1.89c.3-.15.66-.35,1.08-.58l1.35-.76,1.5-.86,1.54-.86,3.63-2.13a.93.93,0,0,1,.44-.09.49.49,0,0,1,.54.56,1.89,1.89,0,0,1-1,1.47c-.56.38-1.3.84-2.2,1.4s-1.89,1.12-2.95,1.65a32.72,32.72,0,0,1-3.21,1.43,10.54,10.54,0,0,1-3,.71,14.89,14.89,0,0,1-4.28,2.27,17.26,17.26,0,0,1-5.75.87,11.25,11.25,0,0,1-2.73-.29,4.59,4.59,0,0,1-1.79-.84,3.16,3.16,0,0,1-1-1.36,5.11,5.11,0,0,1-.31-1.86,9.5,9.5,0,0,1,.61-3.21,23.54,23.54,0,0,1,1.51-3.33,27.41,27.41,0,0,1,1.94-3,24.25,24.25,0,0,1,1.87-2.31,23.21,23.21,0,0,1-2.12,1.56c-.91.61-1.95,1.26-3.09,2s-2.37,1.42-3.66,2.16L309.47,396a1.34,1.34,0,0,1-.52.12.59.59,0,0,1-.63-.63,1.16,1.16,0,0,1,.27-.69,3.11,3.11,0,0,1,.88-.73c2.37-1.38,4.4-2.56,6.07-3.56s3.12-1.85,4.33-2.55,2.29-1.25,3.19-1.67a18.46,18.46,0,0,1,2.61-1,14.78,14.78,0,0,1,2.62-.46C329.19,384.75,330.26,384.71,331.48,384.71Zm-9.38,17.46a7.25,7.25,0,0,0,2.88-.6,12.83,12.83,0,0,0,2.75-1.66,2,2,0,0,1-.43-.8,3.91,3.91,0,0,1-.11-.91,1.43,1.43,0,0,1,.54-1.22,2,2,0,0,1,1.28-.41,2.88,2.88,0,0,1,1.55.46,8.48,8.48,0,0,0,1.43-1.28,9.92,9.92,0,0,0,1.18-1.59,8.17,8.17,0,0,0,.8-1.73,5.37,5.37,0,0,0,.29-1.73,3.89,3.89,0,0,0-.26-1.39,2.84,2.84,0,0,0-.87-1.15,4.53,4.53,0,0,0-1.57-.79,8.5,8.5,0,0,0-2.36-.29,4.73,4.73,0,0,0-2.28.61,9.27,9.27,0,0,0-2.18,1.62,15.85,15.85,0,0,0-1.95,2.31,19.64,19.64,0,0,0-1.56,2.68,17.8,17.8,0,0,0-1,2.71,9,9,0,0,0-.37,2.43,3.36,3.36,0,0,0,.54,2A2,2,0,0,0,322.1,402.17Z" transform="translate(-92.01 -333.66)"/><path class="cls-1" d="M343.58,396.09a.57.57,0,0,1-.31.1.43.43,0,0,1-.37-.21.88.88,0,0,1-.14-.52,1.44,1.44,0,0,1,.19-.69,1.52,1.52,0,0,1,.63-.63q3.33-2,5.68-3.48c1.57-1,3-1.85,4.18-2.53a21.37,21.37,0,0,1,3.34-1.55,9.56,9.56,0,0,1,3.15-.53,7.4,7.4,0,0,1,3.49.64,2,2,0,0,1,1.15,1.77,3.06,3.06,0,0,1-.25,1.29,2.81,2.81,0,0,1-.65.95,2.68,2.68,0,0,1-.93.59,3,3,0,0,1-1.06.2,1.46,1.46,0,0,1-.88-.36,1.36,1.36,0,0,1-.45-1.13,4.44,4.44,0,0,0-.31-2,1,1,0,0,0-.86-.59,2,2,0,0,0-1.15.5,7.55,7.55,0,0,0-1.32,1.33,17.42,17.42,0,0,0-1.34,1.95,18,18,0,0,0-1.15,2.33,17.31,17.31,0,0,0-.82,2.46,9.68,9.68,0,0,0-.32,2.37,4.31,4.31,0,0,0,.94,3.08,3.19,3.19,0,0,0,2.4,1,8.67,8.67,0,0,0,3.57-.85,45.23,45.23,0,0,0,4.05-2.09q2.18-1.25,4.63-2.69a45.92,45.92,0,0,1,5.3-2.64,1,1,0,0,1,.47-.14c.33,0,.49.19.49.58a2,2,0,0,1-.22.79,1.6,1.6,0,0,1-.74.71,23.84,23.84,0,0,0-2.79,1.49c-.95.59-1.93,1.2-2.94,1.85s-2.05,1.29-3.11,1.92a31.42,31.42,0,0,1-3.24,1.71,22.87,22.87,0,0,1-3.37,1.25,12.75,12.75,0,0,1-3.47.48,8.42,8.42,0,0,1-3-.49,5.54,5.54,0,0,1-2-1.32,5.13,5.13,0,0,1-1.12-1.93,7.79,7.79,0,0,1-.35-2.34,8.71,8.71,0,0,1,.3-2.22,11.26,11.26,0,0,1,.83-2.18,10.41,10.41,0,0,1,1.26-1.94,9.39,9.39,0,0,1,1.58-1.52Z" transform="translate(-92.01 -333.66)"/><path class="cls-1" d="M374.07,396.09a.56.56,0,0,1-.3.1.43.43,0,0,1-.38-.21,1,1,0,0,1-.14-.52,1.44,1.44,0,0,1,.19-.69,1.52,1.52,0,0,1,.63-.63q3.33-2,5.68-3.48c1.57-1,3-1.85,4.19-2.53a21.3,21.3,0,0,1,3.33-1.55,9.56,9.56,0,0,1,3.15-.53,7.37,7.37,0,0,1,3.49.64,2,2,0,0,1,1.15,1.77,3.23,3.23,0,0,1-.24,1.29,2.84,2.84,0,0,1-.66.95,2.68,2.68,0,0,1-.93.59,3,3,0,0,1-1.06.2,1.41,1.41,0,0,1-.87-.36,1.34,1.34,0,0,1-.46-1.13,4.44,4.44,0,0,0-.31-2,1,1,0,0,0-.86-.59,2,2,0,0,0-1.15.5,7.55,7.55,0,0,0-1.32,1.33,17.4,17.4,0,0,0-1.33,1.95,16.86,16.86,0,0,0-1.16,2.33,18.67,18.67,0,0,0-.82,2.46,9.65,9.65,0,0,0-.31,2.37,4.31,4.31,0,0,0,.93,3.08,3.19,3.19,0,0,0,2.4,1,8.67,8.67,0,0,0,3.57-.85,43.92,43.92,0,0,0,4-2.09q2.18-1.25,4.63-2.69a45.92,45.92,0,0,1,5.3-2.64,1,1,0,0,1,.47-.14c.33,0,.49.19.49.58a1.86,1.86,0,0,1-.22.79,1.6,1.6,0,0,1-.74.71,23.84,23.84,0,0,0-2.79,1.49c-.95.59-1.93,1.2-2.94,1.85s-2,1.29-3.11,1.92a31.42,31.42,0,0,1-3.24,1.71A22.06,22.06,0,0,1,389,404.3a12.73,12.73,0,0,1-3.46.48,8.44,8.44,0,0,1-3-.49,5.42,5.42,0,0,1-2-1.32,5.15,5.15,0,0,1-1.13-1.93,7.79,7.79,0,0,1-.35-2.34,8.71,8.71,0,0,1,.3-2.22,11.26,11.26,0,0,1,.83-2.18,10.41,10.41,0,0,1,1.26-1.94,9.39,9.39,0,0,1,1.58-1.52Z" transform="translate(-92.01 -333.66)"/><path class="cls-1" d="M404.41,396.06a.66.66,0,0,1-.31.1.39.39,0,0,1-.35-.2,1,1,0,0,1-.12-.51,1.75,1.75,0,0,1,.17-.7,1.36,1.36,0,0,1,.61-.63l8.7-5.1a23.15,23.15,0,0,1,3.49-1.61,30.09,30.09,0,0,1,3.77-1.12,34.31,34.31,0,0,1,7.34-.83,12.46,12.46,0,0,1,1.78.12,6.93,6.93,0,0,1,1.43.36,2.72,2.72,0,0,1,.94.56,1,1,0,0,1,.34.75.5.5,0,0,1-.24.47,1.5,1.5,0,0,1-.55.2c-.21,0-.43.07-.65.09a1.15,1.15,0,0,0-.53.15c-.1.39-.24.89-.45,1.51s-.41,1.25-.62,1.89l-.57,1.74c-.17.51-.27.8-.29.88-.21.64-.48,1.47-.82,2.48s-.71,2.36-1.14,4a5.07,5.07,0,0,0,.53-.28l1.32-.72,1.84-1,2.13-1.21,5.6-3.35a1.16,1.16,0,0,1,.57-.19.46.46,0,0,1,.39.18.65.65,0,0,1,.14.44,1.54,1.54,0,0,1-.25.76,2.3,2.3,0,0,1-.85.77l-12.49,7.33a3.67,3.67,0,0,1-.87.4,2.64,2.64,0,0,1-.74.12,1.5,1.5,0,0,1-.81-.21,1.56,1.56,0,0,1-.54-.57,3.12,3.12,0,0,1-.32-.84,4.57,4.57,0,0,1-.11-1,6,6,0,0,1,.12-1.19,8.71,8.71,0,0,1,.31-1.14,10.16,10.16,0,0,1-1.6,2.31,9.94,9.94,0,0,1-1.95,1.65,8.48,8.48,0,0,1-2.12,1,7.38,7.38,0,0,1-2.14.33,5.76,5.76,0,0,1-2-.33,4.71,4.71,0,0,1-1.63-1,4.57,4.57,0,0,1-1.1-1.59,5.67,5.67,0,0,1-.4-2.22,10.36,10.36,0,0,1,.14-1.68,19.16,19.16,0,0,1,.4-1.88q.26-.94.57-1.86c.21-.61.43-1.17.66-1.67Zm21.35-8.72a10.25,10.25,0,0,0-3.61.64,14.35,14.35,0,0,0-3.2,1.68,15.94,15.94,0,0,0-2.66,2.39,17.51,17.51,0,0,0-2,2.75,14.5,14.5,0,0,0-1.3,2.79,7.8,7.8,0,0,0-.46,2.47A3.31,3.31,0,0,0,413,402a2,2,0,0,0,1.73.75,3.31,3.31,0,0,0,1.55-.44,9.18,9.18,0,0,0,1.7-1.16,17.11,17.11,0,0,0,1.69-1.63c.56-.61,1.08-1.22,1.55-1.84a21.94,21.94,0,0,0,1.24-1.83,8.37,8.37,0,0,0,.76-1.55Z" transform="translate(-92.01 -333.66)"/></svg>